<svg xmlns="http://www.w3.org/2000/svg" viewBox="0 0 126.6 147.4"><defs><style>.cls-1{fill:#231815;}</style></defs><title>logo_sub_b</title><g id="레이어_2" data-name="레이어 2"><g id="레이어_1-2" data-name="레이어 1"><path class="cls-1" d="M40.69,41.07c-7,0-7,10.75,0,10.75a7.55,7.55,0,0,0,3.4-.79l.47,3.65a11.25,11.25,0,0,1-3.87.74c-12,0-11.93-17.89,0-17.89a8.58,8.58,0,0,1,3.48.69l-.42,3.62A6,6,0,0,0,40.69,41.07Z"/><path class="cls-1" d="M55.85,37.45c12.13,0,12.13,18.17,0,18.17S43.72,37.45,55.85,37.45Zm0,3.62c-7,0-7,10.89,0,10.89S62.9,41.07,55.85,41.07Z"/><path class="cls-1" d="M73.5,55.37H68.25V37.75H73.5C85.23,37.75,85.23,55.37,73.5,55.37Zm-1.73-14.1V51.85H73.5c6.85,0,6.85-10.57,0-10.57Z"/><path class="cls-1" d="M85.6,55.37V37.75h8.82v3.52h-5.3V44.8h4.63v3.52H89.13v3.53h5.6v3.52Z"/><path class="cls-1" d="M25.48,80.12a7.92,7.92,0,0,0,5,1.4,1.78,1.78,0,0,0,1.82-1.78c-.07-1-.84-1.45-1.82-1.8-2.76-1-5.23-2.42-5.23-5.37a5.17,5.17,0,0,1,5-5.37,10.43,10.43,0,0,1,4.39.74l-.44,3.4a8,8,0,0,0-3.6-.74,1.74,1.74,0,0,0-1.75,2c.1,1,1,1.43,2,1.77,2.74,1,5.1,2.59,5.1,5.4A5.23,5.23,0,0,1,30.6,85.1,11,11,0,0,1,25,83.82Z"/><path class="cls-1" d="M41.8,85V70.85H37.41v-3.5h12.3v3.5H45.32V85Z"/><path class="cls-1" d="M56.66,66.69H57L64.45,85h-4l-.71-1.9H53.92L53.23,85h-4Zm1.8,13.06-1.6-4.58-1.65,4.58Z"/><path class="cls-1" d="M68.67,85V70.85H64.28v-3.5h12.3v3.5H72.19V85Z"/><path class="cls-1" d="M79.24,85V67.33h8.82v3.52h-5.3v3.52H87.4V77.9H82.77v3.53h5.6V85Z"/><path class="cls-1" d="M91.3,80.12a7.92,7.92,0,0,0,5,1.4,1.78,1.78,0,0,0,1.82-1.78c-.07-1-.84-1.45-1.82-1.8-2.76-1-5.23-2.42-5.23-5.37a5.17,5.17,0,0,1,5-5.37,10.43,10.43,0,0,1,4.39.74l-.44,3.4a8,8,0,0,0-3.6-.74,1.74,1.74,0,0,0-1.75,2c.1,1,1,1.43,2,1.77,2.74,1,5.1,2.59,5.1,5.4a5.23,5.23,0,0,1-5.32,5.35,11,11,0,0,1-5.57-1.28Z"/><path class="cls-1" d="M124.24,125.69H2.36a1.45,1.45,0,0,1-1.45-1.45V2.36A1.45,1.45,0,0,1,2.36.92H124.24a1.45,1.45,0,0,1,1.45,1.45V124.24A1.45,1.45,0,0,1,124.24,125.69ZM3.81,122.79h119V3.81H3.81Z"/><path class="cls-1" d="M124.24,126.6H2.36A2.37,2.37,0,0,1,0,124.24V2.36A2.37,2.37,0,0,1,2.36,0H124.24a2.37,2.37,0,0,1,2.36,2.36V124.24A2.37,2.37,0,0,1,124.24,126.6ZM2.36,1.83a.53.53,0,0,0-.53.53V124.24a.53.53,0,0,0,.53.53H124.24a.53.53,0,0,0,.53-.53V2.36a.53.53,0,0,0-.53-.53ZM123.71,123.71H2.89V2.89H123.71Zm-119-1.83H121.88V4.73H4.73Z"/><path class="cls-1" d="M104.87,23.18a1.45,1.45,0,0,1-1-2.47L123.22,1.34a1.45,1.45,0,0,1,2,2L105.89,22.76A1.44,1.44,0,0,1,104.87,23.18Z"/><path class="cls-1" d="M104.87,24.1a2.36,2.36,0,0,1-1.67-4L122.57.69A2.36,2.36,0,1,1,125.91,4L106.54,23.41A2.34,2.34,0,0,1,104.87,24.1ZM124.24,1.83a.54.54,0,0,0-.38.15L104.49,21.36a.53.53,0,0,0,0,.75.54.54,0,0,0,.75,0L124.61,2.74a.53.53,0,0,0-.37-.9Z"/><path class="cls-1" d="M2.36,125.69a1.45,1.45,0,0,1-1-2.47l19.37-19.37a1.45,1.45,0,0,1,2,2L3.39,125.26A1.44,1.44,0,0,1,2.36,125.69Z"/><path class="cls-1" d="M2.36,126.6a2.36,2.36,0,0,1-1.67-4L20.07,103.2a2.36,2.36,0,1,1,3.34,3.34L4,125.91A2.35,2.35,0,0,1,2.36,126.6Zm19.37-22.27a.52.52,0,0,0-.37.15L2,123.87a.53.53,0,0,0,0,.75.54.54,0,0,0,.75,0l19.37-19.37a.53.53,0,0,0,0-.75A.52.52,0,0,0,21.74,104.34Z"/><path class="cls-1" d="M6.95,146.2a.62.62,0,0,1-.26.51,3.46,3.46,0,0,1-2.13.7,3.87,3.87,0,0,1,0-7.71,3.46,3.46,0,0,1,2.13.7.62.62,0,0,1,.26.51.57.57,0,0,1-.5.58.47.47,0,0,1-.29-.09,2.67,2.67,0,0,0-1.51-.47,2.63,2.63,0,0,0,0,5.23,2.67,2.67,0,0,0,1.51-.46.47.47,0,0,1,.29-.09A.57.57,0,0,1,6.95,146.2Z"/><path class="cls-1" d="M16.71,143.55c0,2.3-1.33,3.85-3.35,3.85S10,145.85,10,143.55s1.32-3.85,3.35-3.85S16.71,141.25,16.71,143.55Zm-1.19,0c0-1.92-1.16-2.63-2.16-2.63s-2.16.71-2.16,2.63,1.15,2.66,2.16,2.66S15.52,145.47,15.52,143.54Z"/><path class="cls-1" d="M25.34,140.8v-3.56a.6.6,0,1,1,1.19,0v9.44a.6.6,0,1,1-1.19,0v-.38a2.86,2.86,0,0,1-2.24,1.1c-1.58,0-3.17-1.38-3.17-3.85s1.58-3.85,3.17-3.85A2.86,2.86,0,0,1,25.34,140.8Zm0,4.27V142a2.69,2.69,0,0,0-2.07-1.09c-1.24,0-2.15.9-2.15,2.62s.9,2.62,2.15,2.62A2.69,2.69,0,0,0,25.34,145.08Z"/><path class="cls-1" d="M36.19,146.23a.66.66,0,0,1-.34.54,3.78,3.78,0,0,1-2.29.64c-2.13,0-3.39-1.41-3.39-3.85,0-2,1-3.85,3.13-3.85,2,0,3.12,1.73,3.12,3.66a.61.61,0,0,1-.6.65H31.37a2.14,2.14,0,0,0,2.29,2.15,3.28,3.28,0,0,0,1.77-.45.44.44,0,0,1,.24-.06A.54.54,0,0,1,36.19,146.23Zm-4.82-3.29h3.86a1.94,1.94,0,1,0-3.86,0Z"/><path class="cls-1" d="M44.71,145.25c0,1.18-.85,2.15-2.53,2.15a4.42,4.42,0,0,1-2.38-.65.61.61,0,0,1-.22-.48.56.56,0,0,1,.51-.58.51.51,0,0,1,.24.06,3.78,3.78,0,0,0,1.78.44c1,0,1.45-.38,1.45-1,0-1.25-3.93-.51-3.93-3.16a2.25,2.25,0,0,1,2.55-2.3,5,5,0,0,1,1.9.36.59.59,0,0,1,.38.55.56.56,0,0,1-.52.58.61.61,0,0,1-.17,0,4.5,4.5,0,0,0-1.49-.26c-1,0-1.51.44-1.51,1C40.77,143.44,44.71,142.4,44.71,145.25Z"/><path class="cls-1" d="M51.9,146.63a.55.55,0,0,1-.3.51,2.34,2.34,0,0,1-1.09.26,1.7,1.7,0,0,1-1.91-1.92V141h-.93a.26.26,0,0,1-.25-.28.33.33,0,0,1,.12-.25l1.78-1.93a.32.32,0,0,1,.22-.13.27.27,0,0,1,.25.29v1.16h1.48a.57.57,0,0,1,0,1.13H49.8v4.39c0,.86.52.87.85.87a6.33,6.33,0,0,0,.79-.13A.51.51,0,0,1,51.9,146.63Z"/><path class="cls-1" d="M60.41,142.56v4.12a.63.63,0,0,1-.6.65.62.62,0,0,1-.59-.65v-.38a3.13,3.13,0,0,1-2.46,1.1,2.08,2.08,0,0,1-2.13-2.18c0-1.37,1-2.36,3-2.36h1.58v-.12c0-1.29-.58-1.8-1.75-1.8a4.77,4.77,0,0,0-1.74.35l-.17,0a.52.52,0,0,1-.48-.55.58.58,0,0,1,.34-.55,5.12,5.12,0,0,1,2.26-.52A2.65,2.65,0,0,1,60.41,142.56Zm-1.19,2.59v-1.22H57.79c-1.23,0-2,.32-2,1.15,0,.63.33,1.16,1.39,1.16A2.73,2.73,0,0,0,59.22,145.15Z"/><path class="cls-1" d="M68.05,146.63a.55.55,0,0,1-.3.51,2.34,2.34,0,0,1-1.09.26,1.7,1.7,0,0,1-1.91-1.92V141h-.93a.26.26,0,0,1-.25-.28.33.33,0,0,1,.12-.25l1.78-1.93a.32.32,0,0,1,.22-.13.27.27,0,0,1,.25.29v1.16h1.48a.57.57,0,0,1,0,1.13H65.95v4.39c0,.86.52.87.85.87a6.33,6.33,0,0,0,.79-.13A.51.51,0,0,1,68.05,146.63Z"/><path class="cls-1" d="M76.94,146.23a.66.66,0,0,1-.34.54,3.78,3.78,0,0,1-2.29.64c-2.13,0-3.39-1.41-3.39-3.85,0-2,1-3.85,3.13-3.85,2,0,3.11,1.73,3.11,3.66a.61.61,0,0,1-.6.65H72.12a2.14,2.14,0,0,0,2.29,2.15,3.28,3.28,0,0,0,1.77-.45.44.44,0,0,1,.24-.06A.54.54,0,0,1,76.94,146.23Zm-4.82-3.29H76a1.94,1.94,0,1,0-3.86,0Z"/><path class="cls-1" d="M85.46,145.25c0,1.18-.85,2.15-2.53,2.15a4.42,4.42,0,0,1-2.38-.65.61.61,0,0,1-.22-.48.56.56,0,0,1,.51-.58.51.51,0,0,1,.24.06,3.78,3.78,0,0,0,1.78.44c1,0,1.45-.38,1.45-1,0-1.25-3.93-.51-3.93-3.16a2.25,2.25,0,0,1,2.55-2.3,5,5,0,0,1,1.9.36.59.59,0,0,1,.38.55.56.56,0,0,1-.52.58.61.61,0,0,1-.17,0,4.5,4.5,0,0,0-1.49-.26c-1,0-1.51.44-1.51,1C81.52,143.44,85.46,142.4,85.46,145.25Z"/><path class="cls-1" d="M90.45,146.4v.09a.78.78,0,0,1-.73.81h-.13a.78.78,0,0,1-.73-.81v-.09a.78.78,0,0,1,.73-.81h.13A.78.78,0,0,1,90.45,146.4Z"/><path class="cls-1" d="M99.8,146.2a.62.62,0,0,1-.26.51,3.46,3.46,0,0,1-2.13.7,3.87,3.87,0,0,1,0-7.71,3.46,3.46,0,0,1,2.13.7.62.62,0,0,1,.26.51.57.57,0,0,1-.5.58.47.47,0,0,1-.29-.09,2.67,2.67,0,0,0-1.51-.47,2.63,2.63,0,0,0,0,5.23A2.67,2.67,0,0,0,99,145.7a.47.47,0,0,1,.29-.09A.57.57,0,0,1,99.8,146.2Z"/><path class="cls-1" d="M109.57,143.55c0,2.3-1.33,3.85-3.35,3.85s-3.35-1.56-3.35-3.85,1.32-3.85,3.35-3.85S109.57,141.25,109.57,143.55Zm-1.19,0c0-1.92-1.16-2.63-2.16-2.63s-2.16.71-2.16,2.63,1.15,2.66,2.16,2.66S108.38,145.47,108.38,143.54Z"/><path class="cls-1" d="M123.2,142.49v4.19a.63.63,0,0,1-.6.65.62.62,0,0,1-.59-.65v-3.93c0-1.22-.34-1.83-1.34-1.83a2.19,2.19,0,0,0-1.88,1.4v4.36a.63.63,0,0,1-.6.65.62.62,0,0,1-.59-.65v-3.93c0-1.22-.34-1.83-1.33-1.83a2.19,2.19,0,0,0-1.89,1.4v4.36a.63.63,0,0,1-.6.65.62.62,0,0,1-.59-.65v-6.24a.64.64,0,0,1,.59-.67.65.65,0,0,1,.6.67v.6a2.54,2.54,0,0,1,2.23-1.34,2.15,2.15,0,0,1,2,1.5,2.64,2.64,0,0,1,2.41-1.5C122.56,139.7,123.2,141.2,123.2,142.49Z"/></g></g></svg>